<svg width="32" height="33" viewBox="0 0 32 33" fill="none" xmlns="http://www.w3.org/2000/svg">
<rect y="0.833252" width="32" height="32" rx="16" fill="#EEEEEE"/>
<path d="M26 17.137C26 11.5804 21.5229 7.07593 16 7.07593C10.4771 7.07593 6 11.5804 6 17.137C6 22.1587 9.65684 26.3211 14.4375 27.0759V20.0453H11.8984V17.137H14.4375V14.9204C14.4375 12.3989 15.9305 11.006 18.2146 11.006C19.3088 11.006 20.4531 11.2026 20.4531 11.2026V13.6785H19.1922C17.95 13.6785 17.5625 14.4541 17.5625 15.2498V17.137H20.3359L19.8926 20.0453H17.5625V27.0759C22.3432 26.3211 26 22.1589 26 17.137Z" fill="#0092BC"/>
</svg>
