<svg width="32" height="33" viewBox="0 0 32 33" fill="none" xmlns="http://www.w3.org/2000/svg">
<rect y="0.833252" width="32" height="32" rx="16" fill="#EEEEEE"/>
<path fill-rule="evenodd" clip-rule="evenodd" d="M8.5 8.07593C7.67157 8.07593 7 8.7475 7 9.57593V24.5759C7 25.4043 7.67157 26.0759 8.5 26.0759H23.5C24.3284 26.0759 25 25.4043 25 24.5759V9.57593C25 8.7475 24.3284 8.07593 23.5 8.07593H8.5ZM12.5208 12.0786C12.5264 13.0349 11.8106 13.6241 10.9612 13.6199C10.1611 13.6157 9.46357 12.9786 9.46779 12.0801C9.47201 11.2349 10.14 10.5557 11.0076 10.5754C11.8879 10.5951 12.5264 11.2405 12.5208 12.0786ZM16.2797 14.8377H13.7597H13.7583V23.3975H16.4217V23.1978C16.4217 22.8179 16.4214 22.4379 16.4211 22.0578C16.4203 21.044 16.4194 20.0291 16.4246 19.0156C16.426 18.7695 16.4372 18.5136 16.5005 18.2787C16.7381 17.4012 17.5271 16.8345 18.4074 16.9738C18.9727 17.0623 19.3467 17.39 19.5042 17.923C19.6013 18.2562 19.6449 18.6148 19.6491 18.9622C19.6605 20.0098 19.6589 21.0574 19.6573 22.1051C19.6567 22.4749 19.6561 22.8449 19.6561 23.2147V23.3961H22.328V23.1908C22.328 22.7388 22.3278 22.2869 22.3275 21.835C22.327 20.7055 22.3264 19.576 22.3294 18.4461C22.3308 17.9356 22.276 17.4322 22.1508 16.9386C21.9638 16.2045 21.5771 15.597 20.9485 15.1583C20.5027 14.8461 20.0133 14.645 19.4663 14.6225C19.404 14.6199 19.3412 14.6165 19.2781 14.6131C18.9984 14.598 18.7141 14.5827 18.4467 14.6366C17.6817 14.7899 17.0096 15.14 16.5019 15.7573C16.4429 15.8281 16.3852 15.9 16.2991 16.0073L16.2797 16.0316V14.8377ZM9.68164 23.4003H12.3324V14.8433H9.68164V23.4003Z" fill="#0092BC"/>
</svg>
