<svg width="32" height="33" viewBox="0 0 32 33" fill="none" xmlns="http://www.w3.org/2000/svg">
<rect y="0.833252" width="32" height="32" rx="16" fill="#EEEEEE"/>
<path d="M8.22172 24.6112C8.68559 25.0758 9.23669 25.444 9.84334 25.6949C10.45 25.9458 11.1002 26.0744 11.7567 26.0732C12.4133 26.0744 13.0637 25.9458 13.6705 25.6949C14.2774 25.444 14.8286 25.0757 15.2927 24.6112L18.1207 21.7822L16.7067 20.3682L13.8787 23.1972C13.3152 23.7582 12.5524 24.0732 11.7572 24.0732C10.962 24.0732 10.1992 23.7582 9.63572 23.1972C9.07422 22.6339 8.75892 21.871 8.75892 21.0757C8.75892 20.2804 9.07422 19.5175 9.63572 18.9542L12.4647 16.1262L11.0507 14.7122L8.22172 17.5402C7.28552 18.4787 6.75977 19.7501 6.75977 21.0757C6.75977 22.4013 7.28552 23.6728 8.22172 24.6112ZM23.7777 16.1262C24.7134 15.1875 25.2388 13.9161 25.2388 12.5907C25.2388 11.2653 24.7134 9.99393 23.7777 9.05521C22.8393 8.11902 21.5678 7.59326 20.2422 7.59326C18.9166 7.59326 17.6452 8.11902 16.7067 9.05521L13.8787 11.8842L15.2927 13.2982L18.1207 10.4692C18.6842 9.9082 19.447 9.59324 20.2422 9.59324C21.0374 9.59324 21.8002 9.9082 22.3637 10.4692C22.9252 11.0325 23.2405 11.7954 23.2405 12.5907C23.2405 13.386 22.9252 14.1489 22.3637 14.7122L19.5347 17.5402L20.9487 18.9542L23.7777 16.1262Z" fill="#0092BC"/>
<path d="M12.4637 21.7833L11.0487 20.3693L19.5357 11.8833L20.9497 13.2983L12.4637 21.7833Z" fill="#0092BC"/>
</svg>
