<svg width="24" height="24" viewBox="0 0 24 24" fill="none" xmlns="http://www.w3.org/2000/svg">
<path d="M12 15.9998C14.2091 15.9998 16 14.2089 16 11.9998C16 9.79062 14.2091 7.99976 12 7.99976C9.79086 7.99976 8 9.79062 8 11.9998C8 14.2089 9.79086 15.9998 12 15.9998Z" fill="black"/>
<path d="M13 4.06876V1.99976H11V4.06876C9.2403 4.29344 7.60497 5.09593 6.35057 6.35033C5.09617 7.60472 4.29368 9.24005 4.069 10.9998H2V12.9998H4.069C4.29335 14.7596 5.09574 16.3951 6.3502 17.6496C7.60466 18.904 9.24017 19.7064 11 19.9308V21.9998H13V19.9308C14.7599 19.7066 16.3955 18.9042 17.65 17.6497C18.9045 16.3953 19.7068 14.7597 19.931 12.9998H22V10.9998H19.931C19.7066 9.23992 18.9043 7.60441 17.6498 6.34995C16.3953 5.09549 14.7598 4.29311 13 4.06876ZM12 17.9998C8.691 17.9998 6 15.3088 6 11.9998C6 8.69076 8.691 5.99976 12 5.99976C15.309 5.99976 18 8.69076 18 11.9998C18 15.3088 15.309 17.9998 12 17.9998Z" fill="black"/>
</svg>
