<svg width="24" height="24" viewBox="0 0 24 24" fill="none" xmlns="http://www.w3.org/2000/svg">
<path d="M16 1.99976H8C4.691 1.99976 2 4.69076 2 7.99976V20.9998C2 21.265 2.10536 21.5193 2.29289 21.7069C2.48043 21.8944 2.73478 21.9998 3 21.9998H16C19.309 21.9998 22 19.3088 22 15.9998V7.99976C22 4.69076 19.309 1.99976 16 1.99976ZM20 15.9998C20 18.2058 18.206 19.9998 16 19.9998H4V7.99976C4 5.79376 5.794 3.99976 8 3.99976H16C18.206 3.99976 20 5.79376 20 7.99976V15.9998Z" fill="black"/>
<path d="M7 8.99976H17V10.9998H7V8.99976ZM7 12.9998H14V14.9998H7V12.9998Z" fill="black"/>
</svg>
