<svg width="27" height="30" viewBox="0 0 27 30" fill="none" xmlns="http://www.w3.org/2000/svg">
<path d="M24 17.379V12C24 7.1745 20.7225 3.1095 16.2825 1.887C15.843 0.78 14.769 0 13.5 0C12.231 0 11.157 0.78 10.7175 1.887C6.2775 3.111 3 7.1745 3 12V17.379L0.439502 19.9395C0.299938 20.0786 0.189256 20.2438 0.113828 20.4259C0.0384002 20.6079 -0.000284174 20.803 1.57151e-06 21V24C1.57151e-06 24.3978 0.158037 24.7794 0.439341 25.0607C0.720646 25.342 1.10218 25.5 1.5 25.5H25.5C25.8978 25.5 26.2794 25.342 26.5607 25.0607C26.842 24.7794 27 24.3978 27 24V21C27.0003 20.803 26.9616 20.6079 26.8862 20.4259C26.8107 20.2438 26.7001 20.0786 26.5605 19.9395L24 17.379ZM24 22.5H3V21.621L5.5605 19.0605C5.70006 18.9214 5.81075 18.7562 5.88617 18.5741C5.9616 18.3921 6.00029 18.197 6 18V12C6 7.8645 9.3645 4.5 13.5 4.5C17.6355 4.5 21 7.8645 21 12V18C21 18.399 21.1575 18.78 21.4395 19.0605L24 21.621V22.5ZM13.5 30C14.429 30.0012 15.3352 29.7129 16.0927 29.1752C16.8503 28.6376 17.4215 27.8773 17.727 27H9.273C9.57849 27.8773 10.1497 28.6376 10.9073 29.1752C11.6648 29.7129 12.5711 30.0012 13.5 30Z" fill="#6BCABA"/>
</svg>
