<svg width="31" height="30" viewBox="0 0 31 30" fill="none" xmlns="http://www.w3.org/2000/svg">
<path fill-rule="evenodd" clip-rule="evenodd" d="M9.3819 0.421252C10.9459 0.349252 11.4446 0.333252 15.4286 0.333252C19.4126 0.333252 19.9112 0.350585 21.4739 0.421252C23.0366 0.491919 24.1032 0.741252 25.0366 1.10259C26.0139 1.47192 26.9006 2.04925 27.6339 2.79592C28.3806 3.52792 28.9566 4.41325 29.3246 5.39192C29.6872 6.32525 29.9352 7.39192 30.0072 8.95192C30.0792 10.5186 30.0952 11.0173 30.0952 14.9999C30.0952 18.9839 30.0779 19.4826 30.0072 21.0466C29.9366 22.6066 29.6872 23.6733 29.3246 24.6066C28.9566 25.5854 28.3796 26.4722 27.6339 27.2052C26.9006 27.9519 26.0139 28.5279 25.0366 28.8959C24.1032 29.2586 23.0366 29.5066 21.4766 29.5786C19.9112 29.6506 19.4126 29.6666 15.4286 29.6666C11.4446 29.6666 10.9459 29.6493 9.3819 29.5786C7.8219 29.5079 6.75524 29.2586 5.8219 28.8959C4.84313 28.5279 3.95633 27.9509 3.22324 27.2052C2.47708 26.4728 1.89965 25.5864 1.53124 24.6079C1.1699 23.6746 0.921902 22.6079 0.849902 21.0479C0.777902 19.4813 0.761902 18.9826 0.761902 14.9999C0.761902 11.0159 0.779235 10.5173 0.849902 8.95459C0.920569 7.39192 1.1699 6.32525 1.53124 5.39192C1.9002 4.41336 2.47806 3.527 3.22457 2.79458C3.95662 2.04859 4.84253 1.47118 5.82057 1.10259C6.7539 0.741252 7.82057 0.493252 9.38057 0.421252H9.3819ZM21.3552 3.06125C19.8086 2.99059 19.3446 2.97592 15.4286 2.97592C11.5126 2.97592 11.0486 2.99059 9.5019 3.06125C8.07124 3.12659 7.29524 3.36525 6.7779 3.56659C6.0939 3.83325 5.60457 4.14925 5.09124 4.66259C4.60463 5.13599 4.23014 5.71229 3.99524 6.34925C3.7939 6.86659 3.55524 7.64258 3.4899 9.07325C3.41924 10.6199 3.40457 11.0839 3.40457 14.9999C3.40457 18.9159 3.41924 19.3799 3.4899 20.9266C3.55524 22.3573 3.7939 23.1333 3.99524 23.6506C4.2299 24.2866 4.60457 24.8639 5.09124 25.3373C5.56457 25.8239 6.1419 26.1986 6.7779 26.4333C7.29524 26.6346 8.07124 26.8733 9.5019 26.9386C11.0486 27.0093 11.5112 27.0239 15.4286 27.0239C19.3459 27.0239 19.8086 27.0093 21.3552 26.9386C22.7859 26.8733 23.5619 26.6346 24.0792 26.4333C24.7632 26.1666 25.2526 25.8506 25.7659 25.3373C26.2526 24.8639 26.6272 24.2866 26.8619 23.6506C27.0632 23.1333 27.3019 22.3573 27.3672 20.9266C27.4379 19.3799 27.4526 18.9159 27.4526 14.9999C27.4526 11.0839 27.4379 10.6199 27.3672 9.07325C27.3019 7.64258 27.0632 6.86659 26.8619 6.34925C26.5952 5.66525 26.2792 5.17592 25.7659 4.66259C25.2925 4.17601 24.7162 3.80153 24.0792 3.56659C23.5619 3.36525 22.7859 3.12659 21.3552 3.06125ZM13.5552 19.5212C14.6014 19.9568 15.7664 20.0155 16.8511 19.6875C17.9359 19.3596 18.8731 18.6651 19.5027 17.7229C20.1323 16.7807 20.4153 15.6491 20.3033 14.5214C20.1913 13.3937 19.6912 12.3399 18.8886 11.5399C18.3769 11.0286 17.7582 10.637 17.077 10.3934C16.3958 10.1499 15.6691 10.0604 14.9492 10.1314C14.2293 10.2024 13.5341 10.4322 12.9136 10.8041C12.2932 11.176 11.7629 11.6809 11.361 12.2824C10.9591 12.8839 10.6955 13.567 10.5893 14.2825C10.483 14.9981 10.5368 15.7283 10.7466 16.4206C10.9565 17.1129 11.3172 17.7501 11.8029 18.2862C12.2885 18.8224 12.887 19.2442 13.5552 19.5212ZM10.0979 9.66925C10.7979 8.96922 11.629 8.41392 12.5436 8.03507C13.4583 7.65621 14.4386 7.46122 15.4286 7.46122C16.4186 7.46122 17.3989 7.65621 18.3135 8.03507C19.2281 8.41392 20.0592 8.96922 20.7592 9.66925C21.4593 10.3693 22.0146 11.2003 22.3934 12.115C22.7723 13.0296 22.9673 14.0099 22.9673 14.9999C22.9673 15.9899 22.7723 16.9702 22.3934 17.8849C22.0146 18.7995 21.4593 19.6306 20.7592 20.3306C19.3455 21.7444 17.428 22.5386 15.4286 22.5386C13.4292 22.5386 11.5117 21.7444 10.0979 20.3306C8.68412 18.9168 7.88987 16.9993 7.88987 14.9999C7.88987 13.0005 8.68412 11.083 10.0979 9.66925ZM24.6392 8.58392C24.8127 8.42028 24.9516 8.22349 25.0476 8.00522C25.1437 7.78694 25.195 7.55161 25.1985 7.31316C25.2019 7.07471 25.1575 6.83798 25.0679 6.617C24.9782 6.39602 24.8451 6.19527 24.6765 6.02664C24.5079 5.85801 24.3071 5.72493 24.0862 5.63528C23.8652 5.54562 23.6284 5.50122 23.39 5.5047C23.1515 5.50817 22.9162 5.55946 22.6979 5.65551C22.4797 5.75157 22.2829 5.89045 22.1192 6.06392C21.801 6.40129 21.6267 6.84941 21.6335 7.31316C21.6403 7.7769 21.8275 8.21976 22.1554 8.54771C22.4834 8.87566 22.9263 9.06289 23.39 9.06965C23.8537 9.07641 24.3019 8.90217 24.6392 8.58392Z" fill="#6BCABA"/>
</svg>
