<svg width="28" height="29" viewBox="0 0 28 29" fill="none" xmlns="http://www.w3.org/2000/svg">
<path d="M1.50002 28.5C1.61958 28.5144 1.74045 28.5144 1.86002 28.5L7.86002 27C8.12619 26.9367 8.36998 26.8018 8.56502 26.61L27 8.11498C27.5588 7.55289 27.8724 6.79253 27.8724 5.99998C27.8724 5.20742 27.5588 4.44706 27 3.88498L24.63 1.49998C24.3514 1.22105 24.0205 0.999771 23.6563 0.848798C23.2921 0.697825 22.9018 0.620117 22.5075 0.620117C22.1133 0.620117 21.7229 0.697825 21.3587 0.848798C20.9945 0.999771 20.6636 1.22105 20.385 1.49998L1.95002 19.935C1.7562 20.1309 1.61664 20.3738 1.54502 20.64L0.04502 26.64C-0.00889319 26.8341 -0.0231628 27.037 0.00306237 27.2367C0.0292875 27.4365 0.0954702 27.6288 0.197662 27.8024C0.299854 27.976 0.435962 28.1272 0.597867 28.2471C0.759771 28.3669 0.944155 28.4529 1.14002 28.5C1.25958 28.5144 1.38046 28.5144 1.50002 28.5ZM22.5 3.61498L24.885 5.99998L22.5 8.38498L20.13 5.99998L22.5 3.61498ZM4.36502 21.765L18 8.11498L20.385 10.5L6.73502 24.15L3.57002 24.93L4.36502 21.765Z" fill="#6BCABA"/>
</svg>
