<svg width="35" height="24" viewBox="0 0 35 24" fill="none" xmlns="http://www.w3.org/2000/svg">
<path d="M13.7142 17.1429L22.6113 12L13.7142 6.85714V17.1429ZM33.5313 3.72C33.7542 4.52571 33.9085 5.60571 34.0113 6.97714C34.1313 8.34857 34.1827 9.53143 34.1827 10.56L34.2856 12C34.2856 15.7543 34.0113 18.5143 33.5313 20.28C33.1027 21.8229 32.1085 22.8171 30.5656 23.2457C29.7599 23.4686 28.2856 23.6229 26.0227 23.7257C23.7942 23.8457 21.7542 23.8971 19.8685 23.8971L17.1427 24C9.95988 24 5.48559 23.7257 3.71988 23.2457C2.17702 22.8171 1.18274 21.8229 0.754164 20.28C0.531307 19.4743 0.377021 18.3943 0.274164 17.0229C0.154164 15.6514 0.102735 14.4686 0.102735 13.44L-0.00012207 12C-0.00012207 8.24571 0.274164 5.48571 0.754164 3.72C1.18274 2.17714 2.17702 1.18286 3.71988 0.754286C4.52559 0.531429 5.99988 0.377143 8.26274 0.274285C10.4913 0.154285 12.5313 0.102857 14.417 0.102857L17.1427 0C24.3256 0 28.7999 0.274286 30.5656 0.754286C32.1085 1.18286 33.1027 2.17714 33.5313 3.72Z" fill="#6BCABA"/>
</svg>
