<svg width="24" height="24" viewBox="0 0 24 24" fill="none" xmlns="http://www.w3.org/2000/svg">
<path d="M11.9997 18.9997C12.9457 18.9997 13.8097 18.8967 14.5977 18.7187L12.8407 16.9617C12.5677 16.9827 12.2907 16.9997 11.9997 16.9997C6.64874 16.9997 4.57573 13.1537 4.07373 11.9997C4.45068 11.1585 4.95978 10.3831 5.58173 9.70272L4.18373 8.30472C2.64573 9.97172 2.06273 11.6507 2.05173 11.6837C1.98276 11.8891 1.98276 12.1114 2.05173 12.3167C2.07273 12.3827 4.36673 18.9997 11.9997 18.9997ZM11.9997 4.99972C10.1627 4.99972 8.65373 5.39572 7.39573 5.98072L3.70673 2.29272L2.29273 3.70672L20.2927 21.7067L21.7067 20.2927L18.3877 16.9737C21.0017 15.0227 21.9347 12.3587 21.9487 12.3167C22.0177 12.1114 22.0177 11.8891 21.9487 11.6837C21.9267 11.6167 19.6327 4.99972 11.9997 4.99972ZM16.9717 15.5577L14.6917 13.2777C14.8817 12.8877 14.9997 12.4587 14.9997 11.9997C14.9997 10.3587 13.6407 8.99972 11.9997 8.99972C11.5407 8.99972 11.1117 9.11772 10.7227 9.30872L8.91473 7.50072C9.90725 7.16014 10.9504 6.99072 11.9997 6.99972C17.3507 6.99972 19.4237 10.8457 19.9257 11.9997C19.6237 12.6917 18.7597 14.3417 16.9717 15.5577Z" fill="black"/>
</svg>
