<svg width="24" height="24" viewBox="0 0 24 24" fill="none" xmlns="http://www.w3.org/2000/svg">
<path d="M11.9998 8.99976C11.2058 9.005 10.4458 9.32275 9.88429 9.88423C9.32281 10.4457 9.00506 11.2057 8.99982 11.9998C8.99982 13.6418 10.3578 14.9998 11.9998 14.9998C13.6408 14.9998 14.9998 13.6418 14.9998 11.9998C14.9998 10.3588 13.6408 8.99976 11.9998 8.99976Z" fill="black"/>
<path d="M11.9998 4.99976C4.3668 4.99976 2.0728 11.6168 2.0518 11.6838L1.9458 11.9998L2.0508 12.3158C2.0728 12.3828 4.3668 18.9998 11.9998 18.9998C19.6328 18.9998 21.9268 12.3828 21.9478 12.3158L22.0538 11.9998L21.9488 11.6838C21.9268 11.6168 19.6328 4.99976 11.9998 4.99976ZM11.9998 16.9998C6.6488 16.9998 4.5758 13.1538 4.0738 11.9998C4.5778 10.8418 6.6518 6.99976 11.9998 6.99976C17.3508 6.99976 19.4238 10.8458 19.9258 11.9998C19.4218 13.1578 17.3478 16.9998 11.9998 16.9998Z" fill="black"/>
</svg>
