<svg width="16" height="16" viewBox="0 0 16 16" fill="none" xmlns="http://www.w3.org/2000/svg">
<g clip-path="url(#clip0_7448_5889)">
<path d="M8.0001 6.30718H4.6649L13.1757 2.82743L9.69238 11.3347V7.99946C9.69238 7.06518 8.93438 6.30718 8.0001 6.30718ZM6.30782 7.99946H8.0001V9.69174V14.2045C8.0001 14.7439 8.38087 15.2058 8.9097 15.3115C9.43854 15.4173 9.96738 15.1317 10.1719 14.6311L15.2487 2.22103C15.4215 1.80149 15.3227 1.31848 15.0019 0.997653C14.6811 0.676825 14.1981 0.578108 13.7785 0.750862L1.36848 5.8277C0.86785 6.03218 0.585804 6.56102 0.688046 7.08986C0.790288 7.6187 1.25566 7.99946 1.79508 7.99946H6.30782Z" fill="white"/>
</g>
<defs>
<clipPath id="clip0_7448_5889">
<rect width="16" height="16" fill="white"/>
</clipPath>
</defs>
</svg>
