<svg width="12" height="13" viewBox="0 0 12 13" fill="none" xmlns="http://www.w3.org/2000/svg">
<path d="M7.125 1.0625C7.125 1.37422 7.37578 1.625 7.6875 1.625H10.0805L4.85156 6.85156C4.63125 7.07188 4.63125 7.42812 4.85156 7.64609C5.07188 7.86406 5.42813 7.86641 5.64609 7.64609L10.8727 2.41953V4.8125C10.8727 5.12422 11.1234 5.375 11.4352 5.375C11.7469 5.375 11.9977 5.12422 11.9977 4.8125V1.0625C11.9977 0.750781 11.7469 0.5 11.4352 0.5H7.6875C7.37578 0.5 7.125 0.750781 7.125 1.0625ZM1.6875 1.25C0.754688 1.25 0 2.00469 0 2.9375V10.8125C0 11.7453 0.754688 12.5 1.6875 12.5H9.5625C10.4953 12.5 11.25 11.7453 11.25 10.8125V7.8125C11.25 7.50078 10.9992 7.25 10.6875 7.25C10.3758 7.25 10.125 7.50078 10.125 7.8125V10.8125C10.125 11.1242 9.87422 11.375 9.5625 11.375H1.6875C1.37578 11.375 1.125 11.1242 1.125 10.8125V2.9375C1.125 2.62578 1.37578 2.375 1.6875 2.375H4.6875C4.99922 2.375 5.25 2.12422 5.25 1.8125C5.25 1.50078 4.99922 1.25 4.6875 1.25H1.6875Z" fill="#0092BC"/>
</svg>
