<svg width="24" height="25" viewBox="0 0 24 25" fill="none" xmlns="http://www.w3.org/2000/svg">
<path d="M9.3125 10.4219H11.3281V14.4531C11.3281 14.8311 11.6221 15.125 12 15.125H13.3438C13.6797 15.125 14.0156 14.8311 14.0156 14.4531V10.4219H16.0312C16.3672 10.4219 16.7031 10.1279 16.7031 9.75V8.40625C16.7031 8.07031 16.3672 7.73438 16.0312 7.73438H14.0156V5.71875C14.0156 5.38281 13.6797 5.04688 13.3438 5.04688H12C11.6221 5.04688 11.3281 5.38281 11.3281 5.71875V7.73438H9.3125C8.93457 7.73438 8.64062 8.07031 8.64062 8.40625V9.75C8.64062 10.1279 8.93457 10.4219 9.3125 10.4219ZM21.4062 17.8125V2.35938C21.4062 2.02344 21.0703 1.6875 20.7344 1.6875H5.95312C4.06348 1.6875 2.59375 3.19922 2.59375 5.04688V19.8281C2.59375 21.7178 4.06348 23.1875 5.95312 23.1875H20.7344C21.0703 23.1875 21.4062 22.8936 21.4062 22.5156V21.8438C21.4062 21.5498 21.1543 21.2559 20.8604 21.2139C20.6504 20.668 20.6504 19.0303 20.8604 18.4844C21.1543 18.4424 21.4062 18.1484 21.4062 17.8125ZM19.1387 21.1719H5.95312C5.19727 21.1719 4.60938 20.584 4.60938 19.8281C4.60938 19.1143 5.19727 18.4844 5.95312 18.4844H19.1387C19.0127 19.2402 19.0127 20.458 19.1387 21.1719ZM19.3906 16.4688H5.95312C5.44922 16.4688 4.9873 16.5947 4.60938 16.7627V5.04688C4.60938 4.33301 5.19727 3.70312 5.95312 3.70312H19.3906V16.4688Z" fill="white"/>
</svg>
