<svg width="24" height="25" viewBox="0 0 24 25" fill="none" xmlns="http://www.w3.org/2000/svg">
<path d="M21.0284 16.9307C20.2306 16.0488 18.6769 14.7471 18.6769 10.4219C18.6769 7.18848 16.4093 4.58496 13.3019 3.91309V3.03125C13.3019 2.31738 12.714 1.6875 12.0001 1.6875C11.2442 1.6875 10.6563 2.31738 10.6563 3.03125V3.91309C7.54898 4.58496 5.28139 7.18848 5.28139 10.4219C5.28139 14.7471 3.72768 16.0488 2.92983 16.9307C2.67787 17.1826 2.5519 17.5186 2.59389 17.8125C2.59389 18.5264 3.0978 19.1562 3.93764 19.1562H20.0206C20.8605 19.1562 21.3644 18.5264 21.4063 17.8125C21.4063 17.5186 21.2804 17.1826 21.0284 16.9307ZM5.40737 17.1406C6.2892 16.0068 7.25502 14.0332 7.29702 10.4639C7.29702 10.4639 7.29702 10.4639 7.29702 10.4219C7.29702 7.86035 9.39663 5.71875 12.0001 5.71875C14.5616 5.71875 16.7032 7.86035 16.7032 10.4219C16.7032 10.4639 16.6612 10.4639 16.6612 10.4639C16.7032 14.0332 17.669 16.0068 18.5509 17.1406H5.40737ZM12.0001 23.1875C13.4698 23.1875 14.6456 22.0117 14.6456 20.5H9.31264C9.31264 22.0117 10.4884 23.1875 12.0001 23.1875Z" fill="white"/>
</svg>
