<svg width="24" height="25" viewBox="0 0 24 25" fill="none" xmlns="http://www.w3.org/2000/svg">
<path d="M21.8678 4.79492L19.6002 2.52734C18.5084 1.43555 16.7027 1.43555 15.6109 2.52734L2.25737 15.7969L1.24956 22.0537C1.12358 22.7256 1.71147 23.3135 2.38335 23.1875L8.64018 22.1797L21.9098 8.82617C23.0016 7.73438 23.0016 5.92871 21.8678 4.79492ZM6.28862 14.3691L13.4273 7.27246L17.1646 11.0098L10.068 18.1484V16.3848H8.05229V14.3691H6.28862ZM4.69292 20.9619L3.47515 19.7441L4.02104 16.6787L4.7769 15.8809H6.54058V17.8965H8.5562V19.6602L7.75835 20.416L4.69292 20.9619ZM20.608 7.52441L18.5504 9.58203L14.8551 5.88672L16.9127 3.8291C17.2906 3.45117 17.9205 3.45117 18.2984 3.8291L20.566 6.09668C20.9859 6.5166 20.9859 7.14648 20.608 7.52441Z" fill="white"/>
</svg>
