<svg width="103" height="44" viewBox="0 0 103 44" fill="none" xmlns="http://www.w3.org/2000/svg">
<g clip-path="url(#clip0_11317_32574)">
<g clip-path="url(#clip1_11317_32574)">
<path d="M15.133 11.7563L14.1709 4.16602C12.1397 4.558 10.2154 5.27071 8.46924 6.2685L12.3891 12.861C13.2444 12.3621 14.1709 12.0058 15.133 11.7563Z" fill="white"/>
<path d="M26.572 6.2685C24.8259 5.27071 22.9016 4.558 20.8703 4.16602L19.8726 11.7563C20.8703 11.9702 21.7612 12.3621 22.6165 12.8254L26.572 6.2685Z" fill="white"/>
<path d="M8.32671 16.8886L1.73418 12.9688C0.772023 14.7149 0.0593165 16.6392 -0.332672 18.6704L7.25765 19.6682C7.5071 18.6704 7.86345 17.7439 8.32671 16.8886Z" fill="white"/>
<path d="M27.748 19.6326L35.3383 18.6348C34.9463 16.6036 34.2336 14.6792 33.2358 12.9688L26.6433 16.8886C27.1778 17.7439 27.5342 18.6704 27.748 19.6326Z" fill="white"/>
<path d="M25.9662 15.7839L32.238 11.4008C31.0977 9.83284 29.7079 8.44306 28.14 7.30273L23.7568 13.5746C24.6121 14.1804 25.3604 14.9287 25.9662 15.7839Z" fill="white"/>
<path d="M11.2488 13.5746L6.90129 7.30273C5.33333 8.44306 3.94355 9.83284 2.80322 11.4008L9.07504 15.7839C9.68084 14.9287 10.4292 14.1804 11.2488 13.5746Z" fill="white"/>
<path d="M23.7568 30.4653L28.14 36.7371C29.7079 35.5967 31.0977 34.207 32.238 32.639L25.9662 28.2559C25.3604 29.1111 24.6121 29.8595 23.7568 30.4653Z" fill="white"/>
<path d="M19.8726 32.2824L20.8703 39.8728C22.9016 39.4808 24.8259 38.7681 26.572 37.7703L22.6521 31.1777C21.7969 31.6766 20.8703 32.033 19.8726 32.2824Z" fill="white"/>
<path d="M26.6789 27.1502L33.2714 31.0701C34.2692 29.3239 34.9819 27.4353 35.3739 25.404L27.7836 24.4062C27.5341 25.3684 27.1422 26.2949 26.6789 27.1502Z" fill="white"/>
<path d="M8.46924 37.7698C10.2154 38.7676 12.1397 39.4803 14.1709 39.8723L15.1687 32.282C14.1709 32.0681 13.28 31.6761 12.3891 31.2129L8.46924 37.7698Z" fill="white"/>
<path d="M9.07504 28.2559L2.80322 32.639C3.94355 34.207 5.33333 35.5967 6.90128 36.7371L11.2844 30.4653C10.4292 29.8595 9.68084 29.1111 9.07504 28.2559Z" fill="white"/>
<path d="M7.25765 24.4062L-0.332672 25.3684C0.0593165 27.3996 0.772023 29.3239 1.76981 31.0344L8.36235 27.1145C7.86345 26.2949 7.5071 25.3684 7.25765 24.4062Z" fill="white"/>
<path d="M26.6076 24.265L22.5096 23.7305C21.9751 25.2984 20.7634 26.51 19.1955 27.0446L19.73 31.1426C23.1154 30.2874 25.788 27.6504 26.6076 24.265Z" fill="white"/>
<path d="M22.5452 20.3438L26.6433 19.8093C25.8236 16.4239 23.151 13.7513 19.7656 12.9316L19.2311 17.0297C20.7634 17.5286 22.0107 18.7758 22.5452 20.3438Z" fill="white"/>
<path d="M8.39798 19.8093L12.496 20.3438C13.0306 18.7758 14.2422 17.5642 15.8101 17.0297L15.2756 12.9316C11.8902 13.7513 9.21759 16.3883 8.39798 19.8093Z" fill="white"/>
<path d="M12.496 23.7305L8.39798 24.265C9.21759 27.6504 11.8902 30.323 15.2756 31.1426L15.8101 27.0446C14.2778 26.51 13.0306 25.2984 12.496 23.7305Z" fill="white"/>
<path d="M41.4319 12.9148C41.4319 10.2066 43.4632 8.35352 46.0289 8.35352C48.0245 8.35352 49.1648 9.42258 49.7706 10.4916L48.167 11.2756C47.8107 10.5629 46.9911 9.99274 46.0289 9.99274C44.4966 9.99274 43.3563 11.2043 43.3563 12.8792C43.3563 14.5541 44.5322 15.7657 46.0289 15.7657C46.9911 15.7657 47.8107 15.1955 48.167 14.4828L49.7706 15.2668C49.1292 16.3715 48.0245 17.4405 46.0289 17.4405C43.4632 17.4762 41.4319 15.6231 41.4319 12.9148Z" fill="white"/>
<path d="M54.9021 13.4489C54.9021 12.558 54.4389 12.273 53.7262 12.273C53.0847 12.273 52.5502 12.6293 52.2651 13.0213V17.2975H50.5902V8.53125H52.2651V11.7741C52.6571 11.2752 53.4767 10.7763 54.5101 10.7763C55.8999 10.7763 56.577 11.5246 56.577 12.7719V17.2975H54.9021V13.4489V13.4489Z" fill="white"/>
<path d="M57.9667 10.955H59.6416V11.8103C60.1048 11.2401 60.8888 10.8125 61.6728 10.8125V12.4517C61.5659 12.4161 61.3877 12.4161 61.2095 12.4161C60.6394 12.4161 59.9267 12.7368 59.6416 13.1288V17.3338H57.9667V10.955V10.955Z" fill="white"/>
<path d="M62.5281 9.03099C62.5281 8.46083 62.9913 8.0332 63.5259 8.0332C64.096 8.0332 64.5236 8.49646 64.5236 9.03099C64.5236 9.60116 64.0604 10.0288 63.5259 10.0288C62.9913 10.0288 62.5281 9.56552 62.5281 9.03099ZM62.7063 10.9553H64.3811V17.334H62.7063V10.9553Z" fill="white"/>
<path d="M65.949 15.303C66.4123 15.7307 67.3745 16.1583 68.1584 16.1583C68.8711 16.1583 69.2275 15.9088 69.2275 15.5168C69.2275 15.0536 68.6573 14.911 67.9446 14.7685C66.8399 14.5547 65.4501 14.3052 65.4501 12.7729C65.4501 11.7039 66.3767 10.7773 68.0515 10.7773C69.1206 10.7773 69.9758 11.1337 70.6173 11.6326L69.9758 12.7729C69.5838 12.3809 68.8711 12.0246 68.0872 12.0246C67.4814 12.0246 67.0894 12.2384 67.0894 12.6304C67.0894 13.0224 67.5883 13.1649 68.301 13.3075C69.4057 13.5213 70.8667 13.8063 70.8667 15.3743C70.8667 16.5503 69.8689 17.4055 68.1228 17.4055C67.0181 17.4055 65.949 17.0492 65.272 16.4077L65.949 15.303Z" fill="white"/>
<path d="M72.0427 15.7302V12.4162H70.9736V10.9551H72.0427V9.20898H73.7176V10.9551H75.0004V12.4162H73.7176V15.3026C73.7176 15.6946 73.9314 16.0153 74.2877 16.0153C74.5372 16.0153 74.7866 15.9084 74.8579 15.8372L75.2142 17.0844C74.9648 17.2982 74.5015 17.4764 73.8245 17.4764C72.6841 17.4764 72.0427 16.8706 72.0427 15.7302Z" fill="white"/>
<path d="M42.109 19.9707H48.3096V21.5743H43.962V23.4986H48.2027V25.1022H43.962V28.7726H42.109V19.9707Z" fill="white"/>
<path d="M51.98 22.2168C53.8687 22.2168 55.1516 23.6422 55.1516 25.7091V26.0654H50.4121C50.519 26.885 51.1604 27.5265 52.2295 27.5265C52.8353 27.5265 53.5123 27.277 53.9399 26.885L54.6883 27.9541C54.0469 28.5599 53.0491 28.845 52.0513 28.845C50.127 28.845 48.6659 27.5265 48.6659 25.4952C48.6659 23.7135 50.0201 22.2168 51.98 22.2168ZM50.4121 24.9607H53.548C53.5123 24.3549 53.0847 23.5353 51.98 23.5353C50.9109 23.5353 50.4833 24.3193 50.4121 24.9607Z" fill="white"/>
<path d="M56.1137 19.9707H57.7886V28.7726H56.1137V19.9707Z" fill="white"/>
<path d="M59.4278 19.9707H61.1026V28.7726H59.4278V19.9707Z" fill="white"/>
<path d="M62.1004 25.5665C62.1004 23.7491 63.3477 22.2168 65.4502 22.2168C67.5526 22.2168 68.8355 23.7491 68.8355 25.5665C68.8355 27.3839 67.5883 28.9162 65.4502 28.9162C63.3477 28.9162 62.1004 27.3839 62.1004 25.5665ZM67.0894 25.5665C67.0894 24.5687 66.4836 23.7135 65.4502 23.7135C64.4167 23.7135 63.8466 24.5687 63.8466 25.5665C63.8466 26.5643 64.4167 27.4196 65.4502 27.4196C66.4836 27.4196 67.0894 26.5643 67.0894 25.5665Z" fill="white"/>
<path d="M73.8957 24.4257L72.5416 28.7733H70.7598L68.8355 22.3945H70.5816L71.7576 26.6708L73.1474 22.3945H74.6441L76.0338 26.6708L77.2098 22.3945H78.9559L77.0316 28.7376H75.2499L73.8957 24.4257Z" fill="white"/>
<path d="M79.5617 26.7425C80.025 27.1701 80.9872 27.5977 81.7711 27.5977C82.4838 27.5977 82.8402 27.3483 82.8402 26.9563C82.8402 26.493 82.27 26.3505 81.5573 26.208C80.4526 25.9941 79.0629 25.7447 79.0629 24.2124C79.0629 23.1433 79.9894 22.2168 81.6642 22.2168C82.7333 22.2168 83.5885 22.5731 84.23 23.072L83.5885 24.2124C83.1966 23.8204 82.4838 23.464 81.6999 23.464C81.0941 23.464 80.7021 23.6778 80.7021 24.0698C80.7021 24.4618 81.201 24.6044 81.9137 24.7469C83.0184 24.9607 84.4794 25.2458 84.4794 26.8138C84.4794 27.9897 83.4816 28.845 81.7355 28.845C80.6308 28.845 79.5617 28.4886 78.8847 27.8472L79.5617 26.7425Z" fill="white"/>
<path d="M89.7535 24.8527C89.7535 23.9619 89.2902 23.6768 88.5775 23.6768C87.9361 23.6768 87.4015 24.0331 87.1164 24.4251V28.7014H85.4416V19.9707H87.1164V23.2135C87.5084 22.7146 88.328 22.2157 89.3615 22.2157C90.7512 22.2157 91.4283 22.9641 91.4283 24.2113V28.737H89.7535V24.8527Z" fill="white"/>
<path d="M92.6399 20.4333C92.6399 19.8632 93.1032 19.4355 93.6377 19.4355C94.2078 19.4355 94.6355 19.8988 94.6355 20.4333C94.6355 21.0035 94.1722 21.4311 93.6377 21.4311C93.1032 21.4311 92.6399 21.0035 92.6399 20.4333ZM92.8181 22.3933H94.4929V28.772H92.8181V22.3933Z" fill="white"/>
<path d="M95.8827 31.1608V22.3945H97.5576V23.2141C98.0565 22.6083 98.7336 22.252 99.5175 22.252C101.157 22.252 102.333 23.4636 102.333 25.6017C102.333 27.7398 101.157 28.9514 99.5175 28.9514C98.7692 28.9514 98.0565 28.6307 97.5576 27.9892V31.1608H95.8827ZM98.983 23.713C98.4485 23.713 97.807 24.0337 97.5576 24.4257V26.6707C97.8427 27.0627 98.4485 27.3834 98.983 27.3834C99.9452 27.3834 100.587 26.6351 100.587 25.5304C100.587 24.4613 99.9452 23.713 98.983 23.713Z" fill="white"/>
<path d="M41.4676 33.7968C41.4676 32.5139 42.4297 31.623 43.677 31.623C44.6391 31.623 45.1737 32.1219 45.4587 32.6565L44.6748 33.0485C44.4966 32.6921 44.1046 32.4427 43.6413 32.4427C42.893 32.4427 42.3585 33.0128 42.3585 33.8324C42.3585 34.652 42.9286 35.2222 43.6413 35.2222C44.1046 35.2222 44.4966 34.9728 44.6748 34.6164L45.4587 34.9728C45.1737 35.5073 44.6391 36.0062 43.677 36.0062C42.4297 35.9706 41.4676 35.0797 41.4676 33.7968Z" fill="white"/>
<path d="M50.7328 34.1185H48.7372V35.8646H47.8463V31.6953H48.7372V33.3345H50.7328V31.6953H51.6237V35.9003H50.7328V34.1185Z" fill="white"/>
<path d="M54.3676 31.6953H55.2585V34.1898C55.2585 34.7599 55.5792 35.1876 56.2206 35.1876C56.862 35.1876 57.1828 34.7956 57.1828 34.1898V31.6953H58.0736V34.2254C58.0736 35.2588 57.4678 35.9716 56.2206 35.9716C54.9377 35.9716 54.3319 35.2588 54.3319 34.2254V31.6953H54.3676Z" fill="white"/>
<path d="M62.3855 34.368H61.7441V35.8646H60.8532V31.6953H62.8132C63.704 31.6953 64.2386 32.2655 64.2386 33.0495C64.2386 33.7978 63.7753 34.1898 63.3121 34.2967L64.2742 35.9003H63.2408L62.3855 34.368ZM62.6706 32.4437H61.7441V33.6196H62.6706C63.027 33.6196 63.3121 33.4058 63.3121 33.0495C63.3121 32.6931 63.027 32.4437 62.6706 32.4437Z" fill="white"/>
<path d="M66.5905 33.7968C66.5905 32.5139 67.5526 31.623 68.7999 31.623C69.762 31.623 70.2966 32.1219 70.5816 32.6565L69.7977 33.0485C69.6195 32.6921 69.2275 32.4427 68.7642 32.4427C68.0159 32.4427 67.4814 33.0128 67.4814 33.8324C67.4814 34.652 68.0515 35.2222 68.7642 35.2222C69.2275 35.2222 69.6195 34.9728 69.7977 34.6164L70.5816 34.9728C70.2966 35.5073 69.762 36.0062 68.7999 36.0062C67.5526 35.9706 66.5905 35.0797 66.5905 33.7968Z" fill="white"/>
<path d="M75.8913 34.1185H73.8957V35.8646H73.0049V31.6953H73.8957V33.3345H75.8913V31.6953H76.7822V35.9003H75.8913V34.1185Z" fill="white"/>
</g>
</g>
<defs>
<clipPath id="clip0_11317_32574">
<rect width="102.665" height="43.9994" fill="white"/>
</clipPath>
<clipPath id="clip1_11317_32574">
<rect width="102.665" height="35.7066" fill="white" transform="translate(-0.332672 4.16602)"/>
</clipPath>
</defs>
</svg>
