<svg width="103" height="44" viewBox="0 0 103 44" fill="none" xmlns="http://www.w3.org/2000/svg">
<g clip-path="url(#clip0_11299_21462)">
<g clip-path="url(#clip1_11299_21462)">
<path d="M15.133 11.7563L14.1709 4.16602C12.1397 4.558 10.2154 5.27071 8.46924 6.2685L12.3891 12.861C13.2444 12.3621 14.1709 12.0058 15.133 11.7563Z" fill="#0092BC"/>
<path d="M26.5719 6.2685C24.8257 5.27071 22.9014 4.558 20.8702 4.16602L19.8724 11.7563C20.8702 11.9702 21.7611 12.3621 22.6164 12.8254L26.5719 6.2685Z" fill="#0092BC"/>
<path d="M8.32711 16.8886L1.73457 12.9688C0.77242 14.7149 0.0597132 16.6392 -0.332275 18.6704L7.25805 19.6682C7.5075 18.6704 7.86385 17.7439 8.32711 16.8886Z" fill="#0092BC"/>
<path d="M27.7484 19.6326L35.3387 18.6348C34.9467 16.6036 34.234 14.6792 33.2362 12.9688L26.6437 16.8886C27.1782 17.7439 27.5346 18.6704 27.7484 19.6326Z" fill="#0092BC"/>
<path d="M25.9669 15.782L32.2387 11.3988C31.0984 9.83089 29.7086 8.44111 28.1406 7.30078L23.7575 13.5726C24.6127 14.1784 25.3611 14.9267 25.9669 15.782Z" fill="#0092BC"/>
<path d="M11.2489 13.5726L6.90141 7.30078C5.33345 8.44111 3.94368 9.83089 2.80334 11.3988L9.07516 15.782C9.68096 14.9267 10.4293 14.1784 11.2489 13.5726Z" fill="#0092BC"/>
<path d="M23.7575 30.4653L28.1406 36.7371C29.7086 35.5967 31.0984 34.207 32.2387 32.639L25.9669 28.2559C25.3611 29.1111 24.6127 29.8595 23.7575 30.4653Z" fill="#0092BC"/>
<path d="M19.8724 32.2824L20.8702 39.8728C22.9014 39.4808 24.8257 38.7681 26.5719 37.7703L22.652 31.1777C21.7967 31.6766 20.8702 32.033 19.8724 32.2824Z" fill="#0092BC"/>
<path d="M26.6788 27.1502L33.2713 31.0701C34.2691 29.3239 34.9818 27.4353 35.3738 25.404L27.7835 24.4062C27.534 25.3684 27.1421 26.2949 26.6788 27.1502Z" fill="#0092BC"/>
<path d="M8.46924 37.7698C10.2154 38.7676 12.1397 39.4803 14.1709 39.8723L15.1687 32.282C14.1709 32.0681 13.28 31.6761 12.3891 31.2129L8.46924 37.7698Z" fill="#0092BC"/>
<path d="M9.07516 28.2559L2.80334 32.639C3.94368 34.207 5.33345 35.5967 6.90141 36.7371L11.2846 30.4653C10.4293 29.8595 9.68096 29.1111 9.07516 28.2559Z" fill="#0092BC"/>
<path d="M7.25805 24.4062L-0.332275 25.3684C0.0597132 27.3996 0.77242 29.3239 1.77021 31.0344L8.36274 27.1145C7.86385 26.2949 7.5075 25.3684 7.25805 24.4062Z" fill="#0092BC"/>
<path d="M26.6079 24.263L22.5098 23.7285C21.9753 25.2965 20.7637 26.5081 19.1957 27.0426L19.7302 31.1407C23.1156 30.2854 25.7882 27.6484 26.6079 24.263Z" fill="#0092BC"/>
<path d="M22.5461 20.3438L26.6442 19.8093C25.8246 16.4239 23.1519 13.7513 19.7666 12.9316L19.2321 17.0297C20.7644 17.5286 22.0116 18.7758 22.5461 20.3438Z" fill="#0092BC"/>
<path d="M8.3978 19.8093L12.4959 20.3438C13.0304 18.7758 14.242 17.5642 15.8099 17.0297L15.2754 12.9316C11.8901 13.7513 9.21741 16.3883 8.3978 19.8093Z" fill="#0092BC"/>
<path d="M12.4959 23.7285L8.3978 24.263C9.21741 27.6484 11.8901 30.321 15.2754 31.1407L15.8099 27.0426C14.2776 26.5081 13.0304 25.2965 12.4959 23.7285Z" fill="#0092BC"/>
<path d="M41.4325 12.9148C41.4325 10.2066 43.4637 8.35352 46.0294 8.35352C48.025 8.35352 49.1653 9.42258 49.7711 10.4916L48.1675 11.2756C47.8112 10.5629 46.9916 9.99274 46.0294 9.99274C44.4971 9.99274 43.3568 11.2043 43.3568 12.8792C43.3568 14.5541 44.5327 15.7657 46.0294 15.7657C46.9916 15.7657 47.8112 15.1955 48.1675 14.4828L49.7711 15.2668C49.1297 16.3715 48.025 17.4405 46.0294 17.4405C43.4637 17.4762 41.4325 15.6231 41.4325 12.9148Z" fill="#0092BC"/>
<path d="M54.903 13.4489C54.903 12.558 54.4397 12.273 53.727 12.273C53.0856 12.273 52.5511 12.6293 52.266 13.0213V17.2975H50.5911V8.53125H52.266V11.7741C52.658 11.2752 53.4776 10.7763 54.511 10.7763C55.9008 10.7763 56.5779 11.5246 56.5779 12.7719V17.2975H54.903V13.4489Z" fill="#0092BC"/>
<path d="M57.9677 10.955H59.6426V11.8103C60.1058 11.2401 60.8898 10.8125 61.6738 10.8125V12.4517C61.5669 12.4161 61.3887 12.4161 61.2105 12.4161C60.6404 12.4161 59.9276 12.7368 59.6426 13.1288V17.3338H57.9677V10.955Z" fill="#0092BC"/>
<path d="M62.5282 9.03099C62.5282 8.46083 62.9915 8.0332 63.526 8.0332C64.0962 8.0332 64.5238 8.49646 64.5238 9.03099C64.5238 9.60116 64.0605 10.0288 63.526 10.0288C62.9915 10.0288 62.5282 9.56552 62.5282 9.03099ZM62.7064 10.9553H64.3813V17.334H62.7064V10.9553Z" fill="#0092BC"/>
<path d="M65.9499 15.303C66.4132 15.7307 67.3753 16.1583 68.1593 16.1583C68.872 16.1583 69.2284 15.9088 69.2284 15.5168C69.2284 15.0536 68.6582 14.911 67.9455 14.7685C66.8408 14.5547 65.451 14.3052 65.451 12.7729C65.451 11.7039 66.3775 10.7773 68.0524 10.7773C69.1214 10.7773 69.9767 11.1337 70.6181 11.6326L69.9767 12.7729C69.5847 12.3809 68.872 12.0246 68.088 12.0246C67.4822 12.0246 67.0902 12.2384 67.0902 12.6304C67.0902 13.0224 67.5891 13.1649 68.3018 13.3075C69.4065 13.5213 70.8676 13.8063 70.8676 15.3743C70.8676 16.5503 69.8698 17.4055 68.1237 17.4055C67.019 17.4055 65.9499 17.0492 65.2728 16.4077L65.9499 15.303Z" fill="#0092BC"/>
<path d="M72.0429 15.7302V12.4162H70.9738V10.9551H72.0429V9.20898H73.7177V10.9551H75.0006V12.4162H73.7177V15.3026C73.7177 15.6946 73.9316 16.0153 74.2879 16.0153C74.5374 16.0153 74.7868 15.9084 74.8581 15.8372L75.2144 17.0844C74.965 17.2982 74.5017 17.4764 73.8246 17.4764C72.6843 17.4764 72.0429 16.8706 72.0429 15.7302Z" fill="#0092BC"/>
<path d="M42.1092 19.9707H48.3098V21.5743H43.9623V23.4986H48.2029V25.1022H43.9623V28.7726H42.1092V19.9707Z" fill="#0092BC"/>
<path d="M51.9803 22.2148C53.8689 22.2148 55.1518 23.6403 55.1518 25.7071V26.0635H50.4123C50.5192 26.8831 51.1606 27.5245 52.2297 27.5245C52.8355 27.5245 53.5126 27.2751 53.9402 26.8831L54.6885 27.9521C54.0471 28.5579 53.0493 28.843 52.0515 28.843C50.1272 28.843 48.6662 27.5245 48.6662 25.4933C48.6662 23.7115 50.0203 22.2148 51.9803 22.2148ZM50.4123 24.9588H53.5482C53.5126 24.353 53.0849 23.5333 51.9803 23.5333C50.9112 23.5333 50.4836 24.3173 50.4123 24.9588Z" fill="#0092BC"/>
<path d="M56.1142 19.9707H57.789V28.7726H56.1142V19.9707Z" fill="#0092BC"/>
<path d="M59.4277 19.9707H61.1026V28.7726H59.4277V19.9707Z" fill="#0092BC"/>
<path d="M62.1009 25.5646C62.1009 23.7472 63.3481 22.2148 65.4506 22.2148C67.5531 22.2148 68.836 23.7472 68.836 25.5646C68.836 27.382 67.5887 28.9143 65.4506 28.9143C63.3481 28.9143 62.1009 27.382 62.1009 25.5646ZM67.0898 25.5646C67.0898 24.5668 66.484 23.7115 65.4506 23.7115C64.4172 23.7115 63.847 24.5668 63.847 25.5646C63.847 26.5624 64.4172 27.4176 65.4506 27.4176C66.484 27.4176 67.0898 26.5624 67.0898 25.5646Z" fill="#0092BC"/>
<path d="M73.896 24.4257L72.5419 28.7733H70.7601L68.8358 22.3945H70.5819L71.7579 26.6708L73.1477 22.3945H74.6443L76.0341 26.6708L77.2101 22.3945H78.9562L77.0319 28.7376H75.2501L73.896 24.4257Z" fill="#0092BC"/>
<path d="M79.5626 26.7405C80.0259 27.1682 80.988 27.5958 81.772 27.5958C82.4847 27.5958 82.8411 27.3463 82.8411 26.9543C82.8411 26.4911 82.2709 26.3485 81.5582 26.206C80.4535 25.9922 79.0637 25.7427 79.0637 24.2104C79.0637 23.1414 79.9902 22.2148 81.6651 22.2148C82.7341 22.2148 83.5894 22.5712 84.2308 23.0701L83.5894 24.2104C83.1974 23.8184 82.4847 23.4621 81.7007 23.4621C81.0949 23.4621 80.7029 23.6759 80.7029 24.0679C80.7029 24.4599 81.2018 24.6024 81.9145 24.745C83.0192 24.9588 84.4803 25.2438 84.4803 26.8118C84.4803 27.9878 83.4825 28.843 81.7364 28.843C80.6317 28.843 79.5626 28.4867 78.8855 27.8452L79.5626 26.7405Z" fill="#0092BC"/>
<path d="M89.7543 24.8527C89.7543 23.9619 89.2911 23.6768 88.5784 23.6768C87.9369 23.6768 87.4024 24.0331 87.1173 24.4251V28.7014H85.4425V19.9707H87.1173V23.2135C87.5093 22.7146 88.3289 22.2157 89.3624 22.2157C90.7521 22.2157 91.4292 22.9641 91.4292 24.2113V28.737H89.7543V24.8527Z" fill="#0092BC"/>
<path d="M92.6398 20.4353C92.6398 19.8651 93.1031 19.4375 93.6376 19.4375C94.2078 19.4375 94.6354 19.9008 94.6354 20.4353C94.6354 21.0055 94.1721 21.4331 93.6376 21.4331C93.1031 21.4331 92.6398 21.0055 92.6398 20.4353ZM92.818 22.3952H94.4929V28.774H92.818V22.3952Z" fill="#0092BC"/>
<path d="M95.8832 31.1608V22.3945H97.5581V23.2141C98.057 22.6083 98.734 22.252 99.518 22.252C101.157 22.252 102.333 23.4636 102.333 25.6017C102.333 27.7398 101.157 28.9514 99.518 28.9514C98.7697 28.9514 98.057 28.6307 97.5581 27.9892V31.1608H95.8832ZM98.9835 23.713C98.449 23.713 97.8075 24.0337 97.5581 24.4257V26.6707C97.8432 27.0627 98.449 27.3834 98.9835 27.3834C99.9456 27.3834 100.587 26.6351 100.587 25.5304C100.587 24.4613 99.9456 23.713 98.9835 23.713Z" fill="#0092BC"/>
<path d="M41.4676 33.7988C41.4676 32.5159 42.4297 31.625 43.6769 31.625C44.6391 31.625 45.1736 32.1239 45.4587 32.6584L44.6747 33.0504C44.4966 32.6941 44.1046 32.4446 43.6413 32.4446C42.893 32.4446 42.3584 33.0148 42.3584 33.8344C42.3584 34.654 42.9286 35.2242 43.6413 35.2242C44.1046 35.2242 44.4966 34.9747 44.6747 34.6184L45.4587 34.9747C45.1736 35.5092 44.6391 36.0081 43.6769 36.0081C42.4297 35.9725 41.4676 35.0816 41.4676 33.7988Z" fill="#0092BC"/>
<path d="M50.733 34.1185H48.7374V35.8646H47.8466V31.6953H48.7374V33.3345H50.733V31.6953H51.6239V35.9003H50.733V34.1185Z" fill="#0092BC"/>
<path d="M54.3677 31.6953H55.2586V34.1898C55.2586 34.7599 55.5793 35.1876 56.2207 35.1876C56.8622 35.1876 57.1829 34.7956 57.1829 34.1898V31.6953H58.0738V34.2254C58.0738 35.2588 57.468 35.9716 56.2207 35.9716C54.9379 35.9716 54.3321 35.2588 54.3321 34.2254V31.6953H54.3677Z" fill="#0092BC"/>
<path d="M62.3862 34.368H61.7448V35.8646H60.8539V31.6953H62.8139C63.7047 31.6953 64.2393 32.2655 64.2393 33.0495C64.2393 33.7978 63.776 34.1898 63.3128 34.2967L64.2749 35.9003H63.2415L62.3862 34.368ZM62.6713 32.4437H61.7448V33.6196H62.6713C63.0277 33.6196 63.3128 33.4058 63.3128 33.0495C63.3128 32.6931 63.0277 32.4437 62.6713 32.4437Z" fill="#0092BC"/>
<path d="M66.5912 33.7988C66.5912 32.5159 67.5534 31.625 68.8006 31.625C69.7628 31.625 70.2973 32.1239 70.5824 32.6584L69.7984 33.0504C69.6203 32.6941 69.2283 32.4446 68.765 32.4446C68.0167 32.4446 67.4821 33.0148 67.4821 33.8344C67.4821 34.654 68.0523 35.2242 68.765 35.2242C69.2283 35.2242 69.6203 34.9747 69.7984 34.6184L70.5824 34.9747C70.2973 35.5092 69.7628 36.0081 68.8006 36.0081C67.5534 35.9725 66.5912 35.0816 66.5912 33.7988Z" fill="#0092BC"/>
<path d="M75.8918 34.1185H73.8962V35.8646H73.0053V31.6953H73.8962V33.3345H75.8918V31.6953H76.7827V35.9003H75.8918V34.1185Z" fill="#0092BC"/>
</g>
</g>
<defs>
<clipPath id="clip0_11299_21462">
<rect width="102.665" height="43.9994" fill="white"/>
</clipPath>
<clipPath id="clip1_11299_21462">
<rect width="102.665" height="35.7066" fill="white" transform="translate(-0.332123 4.16602)"/>
</clipPath>
</defs>
</svg>
