<svg width="24" height="24" viewBox="0 0 24 24" fill="none" xmlns="http://www.w3.org/2000/svg">
<path d="M11.4811 18.6448C7.76124 18.612 4.384 17.5328 1.3829 15.3152C0.969226 15.0088 0.582708 14.6664 0.18501 14.3376C0.13949 14.3 0.0843873 14.2512 0.073207 14.1992C0.0572352 14.1272 0.0500479 14.0208 0.090776 13.9776C0.136296 13.9288 0.239314 13.9208 0.317576 13.92C0.367088 13.92 0.418997 13.9608 0.466912 13.9888C2.5696 15.2008 4.81444 16.0296 7.18945 16.5144C8.47837 16.7776 9.78008 16.9296 11.0962 16.968C14.3057 17.0624 17.3835 16.456 20.3526 15.252C20.462 15.2072 20.5842 15.18 20.7024 15.1728C20.8462 15.164 20.9532 15.2424 21.0067 15.3792C21.0586 15.5096 21.0035 15.6176 20.9172 15.7104C20.8733 15.7584 20.8182 15.7968 20.7655 15.8352C19.3831 16.8408 17.8435 17.5136 16.2079 17.9768C14.6635 18.4136 13.0902 18.6472 11.4819 18.6448" fill="white"/>
<path d="M1.09395 7.51684C1.37027 7.38164 1.62182 7.24165 1.88695 7.13285C2.2559 6.98085 2.64402 6.92085 3.04491 6.96965C3.40987 7.01445 3.71093 7.16485 3.90659 7.49044C3.92416 7.52004 3.94732 7.54564 3.97367 7.58084C4.1254 7.48964 4.26835 7.39684 4.41849 7.31524C4.88566 7.06165 5.38239 6.93365 5.91824 6.96405C6.60183 7.00405 7.0722 7.44964 7.08338 8.13684C7.10255 9.27523 7.09137 10.4144 7.09377 11.5528C7.09377 11.6752 7.04425 11.7448 6.91488 11.744C6.7328 11.744 6.55072 11.7432 6.36944 11.744C6.24886 11.7448 6.19455 11.6808 6.18816 11.5672C6.18497 11.512 6.18497 11.456 6.18497 11.4C6.18497 10.4792 6.18816 9.55762 6.18257 8.63683C6.18178 8.47683 6.1658 8.31123 6.12188 8.15844C6.02445 7.81924 5.82481 7.67444 5.47422 7.67764C5.01983 7.68084 4.59577 7.80804 4.21165 8.04964C4.15974 8.08244 4.1246 8.18084 4.12381 8.24884C4.11901 9.31203 4.12061 10.3744 4.12061 11.4376C4.12061 11.7336 4.10943 11.7448 3.81315 11.7448C3.68139 11.7448 3.55042 11.7472 3.41945 11.744C3.25813 11.7408 3.21421 11.6976 3.21182 11.5328C3.20782 11.3 3.21022 11.0672 3.21022 10.8344C3.21022 10.0952 3.21341 9.35683 3.20782 8.61763C3.20702 8.46723 3.19025 8.31284 3.15032 8.16884C3.05449 7.82644 2.86203 7.68404 2.50906 7.68084C2.04667 7.67684 1.62262 7.82004 1.23131 8.05524C1.181 8.08564 1.15225 8.18884 1.15145 8.25844C1.14666 9.31603 1.14826 10.3736 1.14906 11.4312C1.14906 11.4816 1.14906 11.5328 1.14826 11.5832C1.14746 11.7056 1.08996 11.772 0.962984 11.7712C0.780905 11.7712 0.598826 11.7712 0.417546 11.7712C0.299355 11.7712 0.241856 11.7096 0.237863 11.5936C0.236266 11.5584 0.236266 11.5224 0.236266 11.4872C0.236266 10.1208 0.236266 8.75443 0.237065 7.38804C0.237065 7.13525 0.261821 7.11125 0.514974 7.11045C0.616395 7.11045 0.717018 7.11445 0.818439 7.11045C0.966977 7.10405 1.04444 7.16965 1.05722 7.32004C1.06281 7.38484 1.08118 7.44804 1.09475 7.51444" fill="white"/>
<path d="M11.3442 11.2784C11.2356 11.3448 11.1309 11.4136 11.0223 11.4752C10.524 11.7592 9.99535 11.9176 9.41557 11.8656C8.71042 11.8016 8.28796 11.3688 8.27119 10.6568C8.25602 10.0248 8.2656 9.39204 8.2648 8.76004C8.2648 8.27925 8.2648 7.79925 8.2664 7.31846C8.2664 7.12086 8.29834 7.09206 8.49799 7.08966C8.63934 7.08806 8.78069 7.08806 8.92204 7.08966C9.12648 7.09206 9.15603 7.12006 9.15603 7.33126C9.15763 8.15125 9.15603 8.97044 9.15922 9.78963C9.15922 9.99683 9.16641 10.204 9.17759 10.4112C9.20394 10.8968 9.44911 11.1432 9.93705 11.152C10.4002 11.1608 10.8203 11.004 11.2044 10.7544C11.2523 10.7232 11.2779 10.6264 11.2779 10.5592C11.2875 9.51684 11.2907 8.47525 11.2955 7.43286C11.2955 7.37686 11.2963 7.32166 11.2971 7.26566C11.2986 7.15446 11.3577 7.09446 11.4656 7.09286C11.6628 7.08886 11.8593 7.08966 12.0565 7.09206C12.1531 7.09286 12.205 7.14726 12.209 7.24406C12.2106 7.28486 12.2106 7.32486 12.2106 7.36566C12.2106 8.72164 12.2122 10.0768 12.2122 11.4328C12.2122 11.6968 12.1955 11.7128 11.9255 11.7136C11.9152 11.7136 11.9056 11.7136 11.8952 11.7136C11.7602 11.7048 11.5949 11.74 11.4991 11.6744C11.416 11.6168 11.4105 11.4456 11.3705 11.324C11.3657 11.3104 11.3561 11.2984 11.3426 11.276" fill="white"/>
<path d="M14.6491 11.8944C14.1692 11.9008 13.7283 11.8296 13.3075 11.6536C13.0935 11.564 12.9713 11.2056 13.1014 11.012C13.127 10.9736 13.226 10.9608 13.2843 10.972C13.5566 11.024 13.8242 11.1088 14.0981 11.1416C14.3664 11.1736 14.6427 11.1824 14.9119 11.1568C15.3686 11.1128 15.5867 10.8672 15.5819 10.4672C15.5795 10.288 15.5068 10.1488 15.3559 10.064C15.189 9.97045 15.0141 9.89045 14.8368 9.81845C14.5517 9.70245 14.2554 9.61205 13.9759 9.48405C13.5031 9.26725 13.1917 8.91446 13.1573 8.37206C13.1222 7.81287 13.3873 7.38487 13.9048 7.15127C14.4926 6.88568 15.0947 6.93287 15.7001 7.07927C15.7248 7.08487 15.7488 7.09287 15.7727 7.10007C16.18 7.21687 16.2032 7.24887 16.1872 7.66727C16.1808 7.83447 16.1345 7.86407 15.9668 7.83047C15.6561 7.76727 15.3463 7.69367 15.0316 7.65767C14.8456 7.63687 14.6483 7.66247 14.4622 7.70007C14.1883 7.75527 14.0334 7.92807 14.0031 8.16166C13.9671 8.43686 14.0885 8.63686 14.3177 8.76646C14.471 8.85286 14.6379 8.91446 14.8008 8.98246C15.1315 9.12165 15.4677 9.24725 15.7927 9.39605C16.7039 9.81365 16.6512 11.1432 15.8159 11.6168C15.4421 11.8288 15.0452 11.908 14.6483 11.8936" fill="white"/>
<path d="M20.0145 9.47693C20.0297 9.65533 20.0361 9.83213 20.0616 10.0065C20.1598 10.6905 20.6031 11.0977 21.2962 11.0969C21.6205 11.0969 21.9463 11.0329 22.2681 10.9777C22.4694 10.9433 22.5165 10.9641 22.5213 11.1689C22.5325 11.6209 22.5149 11.6505 22.0805 11.7561C21.5765 11.8793 21.0678 11.8833 20.5663 11.7505C19.9418 11.5857 19.497 11.1961 19.2886 10.5841C19.0242 9.80893 19.0195 9.01933 19.3205 8.25214C19.632 7.45935 20.2565 7.07695 21.0854 7.00495C21.4919 6.96975 21.8912 7.02815 22.2849 7.12895C22.4422 7.16895 22.5133 7.25615 22.5197 7.41935C22.5229 7.49535 22.5221 7.57135 22.5197 7.64735C22.5157 7.83694 22.4638 7.86254 22.2721 7.83294C21.9695 7.78655 21.6644 7.73855 21.3593 7.73375C21.1677 7.73055 20.9664 7.77855 20.7843 7.84574C20.2956 8.02734 20.1327 8.44734 20.0624 8.91853C20.0353 9.10333 20.0289 9.29053 20.0137 9.47693" fill="white"/>
<path d="M20.7278 14.319C20.1433 14.375 19.581 14.4286 19.0188 14.4822C18.9941 14.4846 18.9653 14.499 18.9446 14.4918C18.8823 14.4694 18.7904 14.4534 18.7713 14.4086C18.7513 14.3622 18.7928 14.2798 18.8264 14.223C18.8495 14.183 18.9014 14.1574 18.9438 14.1302C19.506 13.763 20.1321 13.5806 20.7917 13.5054C21.3459 13.4414 21.9002 13.451 22.4496 13.5646C22.5239 13.5798 22.5973 13.5982 22.6692 13.6214C22.9838 13.7206 23.0589 13.8158 23.0605 14.1462C23.0637 14.8838 22.8657 15.575 22.563 16.2398C22.341 16.727 22.0535 17.171 21.6566 17.5358C21.5879 17.599 21.5041 17.655 21.4178 17.6886C21.2741 17.743 21.1902 17.6638 21.2214 17.511C21.2365 17.4374 21.2693 17.3678 21.2972 17.2974C21.5488 16.6622 21.7995 16.027 21.9297 15.3534C21.9577 15.2102 21.9728 15.063 21.9752 14.9174C21.98 14.6406 21.8938 14.5054 21.6238 14.4462C21.3252 14.3814 21.0177 14.359 20.7294 14.3198" fill="white"/>
<path d="M17.2463 9.41598C17.2463 8.72799 17.2463 8.04 17.2463 7.352C17.2463 7.116 17.2678 7.09521 17.5082 7.09441C17.6496 7.09441 17.7909 7.09601 17.9323 7.09521C18.064 7.09521 18.1247 7.1576 18.1239 7.2912C18.1223 7.62 18.1239 7.9488 18.1239 8.27759C18.1247 9.33998 18.1263 10.4024 18.1271 11.4648C18.1271 11.724 18.1112 11.7392 17.8516 11.74C17.7254 11.74 17.5993 11.7408 17.4731 11.74C17.2742 11.7376 17.2439 11.7096 17.2431 11.5104C17.2423 10.812 17.2431 10.1144 17.2431 9.41598H17.2463Z" fill="white"/>
<path d="M17.6621 6.23932C17.3251 6.23692 17.1207 6.03292 17.1239 5.70252C17.1271 5.37612 17.3451 5.17693 17.6964 5.18173C18.0374 5.18573 18.2371 5.37612 18.2379 5.69692C18.2379 6.02332 18.0063 6.24172 17.6629 6.24012" fill="white"/>
</svg>
