<svg width="20" height="20" viewBox="0 0 20 20" fill="none" xmlns="http://www.w3.org/2000/svg">
<g clip-path="url(#clip0_107_236)">
<path d="M13.566 9.2944C14.6107 8.67408 15.4765 7.79307 16.0785 6.73762C16.6804 5.68217 16.998 4.48848 17 3.27344V2.27344H18V0.273438H2V2.27344H3V3.27344C3.00203 4.48848 3.31957 5.68217 3.92154 6.73762C4.5235 7.79307 5.38924 8.67408 6.434 9.2944C6.788 9.5024 7 9.83944 7 10.1944V10.3525C7 10.7065 6.788 11.0425 6.434 11.2525C5.38924 11.8728 4.5235 12.7538 3.92154 13.8093C3.31957 14.8647 3.00203 16.0584 3 17.2734V18.2734H2V20.2734H18V18.2734H17V17.2734C16.9981 16.0586 16.6807 14.8651 16.0789 13.8098C15.4771 12.7546 14.6116 11.8737 13.567 11.2534C13.212 11.0434 13 10.7065 13 10.3525V10.1944C13 9.83944 13.212 9.5024 13.566 9.2944ZM12.551 12.9754C13.2964 13.4186 13.9139 14.0475 14.3432 14.801C14.7725 15.5543 14.9988 16.4063 15 17.2734V18.2734H5V17.2734C5.00131 16.4061 5.22778 15.5539 5.65723 14.8004C6.08669 14.0468 6.70443 13.4176 7.45 12.9745C8.421 12.4014 9 11.4205 9 10.3525V10.1944C9 9.12544 8.42 8.14344 7.449 7.57144C6.70362 7.12835 6.08607 6.49933 5.65678 5.74593C5.2275 4.99252 5.00118 4.14056 5 3.27344V2.27344H15V3.27344C15 5.03344 14.062 6.67944 12.551 7.57144C11.58 8.14344 11 9.12544 11 10.1944V10.3525C11 11.4205 11.579 12.4014 12.551 12.9754Z" fill="#0092BC"/>
</g>
<defs>
<clipPath id="clip0_107_236">
<rect width="20" height="20" fill="white"/>
</clipPath>
</defs>
</svg>
