<svg width="20" height="20" viewBox="0 0 20 20" fill="none" xmlns="http://www.w3.org/2000/svg">
<g clip-path="url(#clip0_107_258)">
<path d="M10.7158 0.295798C10.6228 0.20207 10.5122 0.127675 10.3904 0.0769069C10.2685 0.0261382 10.1378 0 10.0058 0C9.87376 0 9.74312 0.0261382 9.6212 0.0769069C9.49936 0.127675 9.3888 0.20207 9.29576 0.295798L0.295798 9.29576C0.20207 9.3888 0.127675 9.49936 0.0769069 9.6212C0.0261382 9.74312 0 9.87376 0 10.0058C0 10.1378 0.0261382 10.2685 0.0769069 10.3904C0.127675 10.5122 0.20207 10.6228 0.295798 10.7158C0.389238 10.8085 0.500054 10.8818 0.621892 10.9316C0.74373 10.9814 0.874192 11.0066 1.0058 11.0058H2.0058V18.0058C2.0058 18.5362 2.21651 19.045 2.59158 19.42C2.96666 19.7951 3.47537 20.0058 4.0058 20.0058H16.0058C16.5362 20.0058 17.045 19.7951 17.42 19.42C17.7951 19.045 18.0058 18.5362 18.0058 18.0058V11.0058H19.0058C19.271 11.0058 19.5254 10.9005 19.7129 10.7129C19.9005 10.5254 20.0058 10.271 20.0058 10.0058C20.0066 9.87416 19.9814 9.74376 19.9316 9.62192C19.8818 9.50008 19.8085 9.3892 19.7158 9.29576L10.7158 0.295798ZM4.0058 18.0058V8.41576L10.0058 2.4158L16.0058 8.41576V18.0058H4.0058Z" fill="#0092BC"/>
</g>
<defs>
<clipPath id="clip0_107_258">
<rect width="20" height="20" fill="white"/>
</clipPath>
</defs>
</svg>
