<svg width="23" height="24" viewBox="0 0 23 24" fill="none" xmlns="http://www.w3.org/2000/svg">
<path d="M18.303 10.7073C14.596 8.50535 8.48181 8.30353 4.94275 9.37687C4.37451 9.54937 3.77358 9.22804 3.60108 8.65981C3.42858 8.09157 3.74877 7.49064 4.31814 7.31814C8.38034 6.08471 15.1326 6.32373 19.4012 8.85598C19.9119 9.15927 20.0799 9.81995 19.7766 10.3296C19.4733 10.8403 18.8126 11.0094 18.303 10.7061M18.1813 13.9678C17.9208 14.3895 17.3695 14.5226 16.9478 14.2632C13.8575 12.3635 9.14475 11.8133 5.48843 12.9227C5.01377 13.0659 4.51319 12.7987 4.37 12.3251C4.22681 11.8505 4.49402 11.351 4.96755 11.2067C9.14475 9.93946 14.3367 10.5528 17.8859 12.7344C18.3075 12.9937 18.4395 13.5462 18.1813 13.9667M16.7742 17.0988C16.5679 17.4381 16.1259 17.5441 15.7888 17.3378C13.0886 15.6872 9.68931 15.314 5.68574 16.2284C5.30015 16.3163 4.91569 16.0751 4.82775 15.6895C4.7398 15.3039 4.97995 14.9194 5.36667 14.8315C9.74681 13.8303 13.5046 14.261 16.5363 16.1134C16.8746 16.3197 16.9805 16.7617 16.7742 17.0988ZM11.5 0.511719C5.14907 0.511719 0 5.66079 0 12.0117C0 18.3627 5.14907 23.5117 11.5 23.5117C17.8509 23.5117 23 18.3638 23 12.0117C23 5.65966 17.8509 0.511719 11.5 0.511719Z" fill="white"/>
</svg>
