<svg width="24" height="24" viewBox="0 0 24 24" fill="none" xmlns="http://www.w3.org/2000/svg">
<path d="M20 3.99976H4C2.897 3.99976 2 4.89676 2 5.99976V17.9998C2 19.1028 2.897 19.9998 4 19.9998H20C21.103 19.9998 22 19.1028 22 17.9998V5.99976C22 4.89676 21.103 3.99976 20 3.99976ZM20 5.99976V6.51076L12 12.7338L4 6.51176V5.99976H20ZM4 17.9998V9.04376L11.386 14.7888C11.5611 14.9263 11.7773 15.0011 12 15.0011C12.2227 15.0011 12.4389 14.9263 12.614 14.7888L20 9.04376L20.002 17.9998H4Z" fill="black"/>
</svg>
